<?xml version="1.0" ?><!DOCTYPE svg  PUBLIC '-//W3C//DTD SVG 1.1//EN'  'http://www.w3.org/Graphics/SVG/1.1/DTD/svg11.dtd'><svg enable-background="new 0 0 56.693 56.693" height="56.7px" id="Layer_1" version="1.1" viewBox="0 0 56.693 56.693" width="56.7px" xml:space="preserve" xmlns="http://www.w3.org/2000/svg" xmlns:xlink="http://www.w3.org/1999/xlink" fill="#ffffff"><path d="M 52.8 15.1 c -1.8 0.8 -3.8 1.3 -5.8 1.6 c 2.1 -1.3 3.7 -3.2 4.4 -5.6 c -2 1.2 -4.1 2 -6.4 2.5 c -1.8 -2 -4.5 -3.2 -7.4 -3.2 c -5.6 0 -10.1 4.5 -10.1 10.1 c 0 0.8 0.1 1.6 0.3 2.3 c -8.4 -0.4 -15.8 -4.4 -20.8 -10.6 c -0.9 1.5 -1.4 3.2 -1.4 5.1 c 0 3.5 1.8 6.6 4.5 8.4 c -1.7 -0.1 -3.2 -0.5 -4.6 -1.3 c 0 0 0 0.1 0 0.1 c 0 4.9 3.5 9 8.1 9.9 c -0.8 0.2 -1.7 0.4 -2.7 0.4 c -0.7 0 -1.3 -0.1 -1.9 -0.2 c 1.3 4 5 6.9 9.4 7 c -3.5 2.7 -7.8 4.3 -12.6 4.3 c -0.8 0 -1.6 0 -2.4 -0.1 c 4.5 2.9 9.8 4.5 15.5 4.5 c 18.6 0 28.8 -15.4 28.8 -28.8 c 0 -0.4 0 -0.9 0 -1.3 C 49.8 18.9 51.5 17.1 52.8 15.1 z"/></svg>